<?xml version="1.0" encoding="UTF-8"?>
<svg id="Camada_1" data-name="Camada 1" xmlns="http://www.w3.org/2000/svg" viewBox="0 0 472 472">
  <defs>
    <style>
      .cls-1 {
        fill: none;
        stroke: #fff;
        stroke-linecap: round;
        stroke-linejoin: round;
        stroke-width: 10px;
      }

      .cls-2 {
        fill: #333;
      }
    </style>
  </defs>
  <circle class="cls-2" cx="236" cy="236" r="236"/>
  <g>
    <path class="cls-1" d="M331.92,162.85c-22.04-28.86-56.8-47.48-95.92-47.48-66.63,0-120.64,54.01-120.64,120.64s54.01,120.64,120.64,120.64c39.12,0,73.88-18.62,95.92-47.48"/>
    <line class="cls-1" x1="236" y1="115.39" x2="236" y2="356.64"/>
    <line class="cls-1" x1="236" y1="53.95" x2="236" y2="86.3"/>
    <g>
      <line class="cls-1" x1="236.31" y1="49.24" x2="236.31" y2="49.01"/>
      <path class="cls-1" d="M236.3,49.24c51.61,0,98.32,20.92,132.14,54.73,2.38,2.38,7.37,7.44,13.2,14.66"/>
      <path class="cls-1" d="M90.98,118.63c35.11-43.16,81.65-58.45,89.63-60.95,12.5-3.92,31.58-8.43,55.7-8.44"/>
    </g>
    <path class="cls-1" d="M341.34,236l66.59,.11c7.85,0,15.02,7.17,14.62,14.95-.09,1.78,0,.12,0,0,.1-3.37-.12,3.7,0,.25-1.36,40.53-14.01,66.73-36.79,97.01-34.1,45.34-88.35,74.66-149.45,74.66s-115.47-29.39-149.56-74.81c-22.72-30.26-36.46-67.65-37.28-108.21-.02-.53-.03-1.05-.03-1.58,0-.2,0-.4,0-.59,0-.32,0-.65,0-.97,0-.24,0-.48,0-.71,0-19.27,2.92-37.86,8.33-55.34,2.6-8.39,7.14-20.89,14.92-34.95"/>
  </g>
</svg>